<mxfile host="app.diagrams.net" agent="Mozilla/5.0 (Macintosh; Intel Mac OS X 10_15_7) AppleWebKit/605.1.15 (KHTML, like Gecko) Version/17.4.1 Safari/605.1.15" version="26.0.11">
  <diagram name="Page-1" id="NZa6dEO_8dY_fCFI2F7A">
    <mxGraphModel dx="1129" dy="650" grid="1" gridSize="10" guides="1" tooltips="1" connect="1" arrows="1" fold="1" page="1" pageScale="1" pageWidth="850" pageHeight="1100" math="0" shadow="0">
      <root>
        <mxCell id="0" />
        <mxCell id="1" parent="0" />
        <mxCell id="jqRJFGE4x9Wc-5zwD3Hr-1" value="List Users" style="ellipse;whiteSpace=wrap;html=1;fillColor=light-dark(#FF66B3,var(--ge-dark-color, #121212));" vertex="1" parent="1">
          <mxGeometry x="350" y="140" width="120" height="80" as="geometry" />
        </mxCell>
        <mxCell id="jqRJFGE4x9Wc-5zwD3Hr-3" value="" style="endArrow=classic;html=1;rounded=0;entryX=0.5;entryY=0;entryDx=0;entryDy=0;" edge="1" parent="1" source="jqRJFGE4x9Wc-5zwD3Hr-5" target="jqRJFGE4x9Wc-5zwD3Hr-1">
          <mxGeometry width="50" height="50" relative="1" as="geometry">
            <mxPoint x="410" y="60" as="sourcePoint" />
            <mxPoint x="440" y="50" as="targetPoint" />
          </mxGeometry>
        </mxCell>
        <mxCell id="jqRJFGE4x9Wc-5zwD3Hr-5" value="Entry Point" style="text;html=1;align=center;verticalAlign=middle;whiteSpace=wrap;rounded=0;" vertex="1" parent="1">
          <mxGeometry x="380" y="45" width="60" height="30" as="geometry" />
        </mxCell>
        <mxCell id="jqRJFGE4x9Wc-5zwD3Hr-6" value="Delete User Confirmation" style="ellipse;whiteSpace=wrap;html=1;fillColor=light-dark(#FFB366,var(--ge-dark-color, #121212));" vertex="1" parent="1">
          <mxGeometry x="150" y="260" width="120" height="80" as="geometry" />
        </mxCell>
        <mxCell id="jqRJFGE4x9Wc-5zwD3Hr-7" value="" style="endArrow=classic;html=1;rounded=0;entryX=0.8;entryY=0.113;entryDx=0;entryDy=0;entryPerimeter=0;exitX=0;exitY=1;exitDx=0;exitDy=0;strokeColor=light-dark(#FFB366,#FFFFFF);" edge="1" parent="1" source="jqRJFGE4x9Wc-5zwD3Hr-1" target="jqRJFGE4x9Wc-5zwD3Hr-6">
          <mxGeometry width="50" height="50" relative="1" as="geometry">
            <mxPoint x="400" y="360" as="sourcePoint" />
            <mxPoint x="450" y="310" as="targetPoint" />
          </mxGeometry>
        </mxCell>
        <mxCell id="jqRJFGE4x9Wc-5zwD3Hr-9" value="Delete User Button" style="text;html=1;align=center;verticalAlign=middle;whiteSpace=wrap;rounded=0;" vertex="1" parent="1">
          <mxGeometry x="290" y="250" width="60" height="30" as="geometry" />
        </mxCell>
        <mxCell id="jqRJFGE4x9Wc-5zwD3Hr-13" value="" style="curved=1;endArrow=classic;html=1;rounded=0;exitX=0.5;exitY=0;exitDx=0;exitDy=0;strokeColor=light-dark(#FF66B3,#FFFFFF);" edge="1" parent="1" source="jqRJFGE4x9Wc-5zwD3Hr-6">
          <mxGeometry width="50" height="50" relative="1" as="geometry">
            <mxPoint x="400" y="360" as="sourcePoint" />
            <mxPoint x="350" y="170" as="targetPoint" />
            <Array as="points">
              <mxPoint x="240" y="220" />
              <mxPoint x="300" y="150" />
              <mxPoint x="330" y="150" />
            </Array>
          </mxGeometry>
        </mxCell>
        <mxCell id="jqRJFGE4x9Wc-5zwD3Hr-14" value="User Settings" style="ellipse;whiteSpace=wrap;html=1;fillColor=light-dark(#66B2FF,var(--ge-dark-color, #121212));" vertex="1" parent="1">
          <mxGeometry x="350" y="380" width="120" height="80" as="geometry" />
        </mxCell>
        <mxCell id="jqRJFGE4x9Wc-5zwD3Hr-16" value="Add User" style="ellipse;whiteSpace=wrap;html=1;direction=west;fillColor=light-dark(#67AB9F,var(--ge-dark-color, #121212));" vertex="1" parent="1">
          <mxGeometry x="620" y="200" width="120" height="80" as="geometry" />
        </mxCell>
        <mxCell id="jqRJFGE4x9Wc-5zwD3Hr-17" value="Delete User Confirmation" style="ellipse;whiteSpace=wrap;html=1;fillColor=light-dark(#FFB366,var(--ge-dark-color, #121212));" vertex="1" parent="1">
          <mxGeometry x="350" y="520" width="120" height="80" as="geometry" />
        </mxCell>
        <mxCell id="jqRJFGE4x9Wc-5zwD3Hr-20" value="" style="endArrow=classic;html=1;rounded=0;strokeColor=light-dark(#67AB9F,#FFFFFF);" edge="1" parent="1" source="jqRJFGE4x9Wc-5zwD3Hr-1" target="jqRJFGE4x9Wc-5zwD3Hr-16">
          <mxGeometry width="50" height="50" relative="1" as="geometry">
            <mxPoint x="400" y="360" as="sourcePoint" />
            <mxPoint x="450" y="310" as="targetPoint" />
          </mxGeometry>
        </mxCell>
        <mxCell id="jqRJFGE4x9Wc-5zwD3Hr-22" value="" style="curved=1;endArrow=classic;html=1;rounded=0;exitX=0.5;exitY=0;exitDx=0;exitDy=0;strokeColor=light-dark(#FF66B3,#FFFFFF);" edge="1" parent="1" target="jqRJFGE4x9Wc-5zwD3Hr-1">
          <mxGeometry width="50" height="50" relative="1" as="geometry">
            <mxPoint x="170" y="270" as="sourcePoint" />
            <mxPoint x="310" y="180" as="targetPoint" />
            <Array as="points">
              <mxPoint x="200" y="230" />
              <mxPoint x="310" y="100" />
              <mxPoint x="360" y="120" />
            </Array>
          </mxGeometry>
        </mxCell>
        <mxCell id="jqRJFGE4x9Wc-5zwD3Hr-23" value="Cancel Button" style="text;html=1;align=center;verticalAlign=middle;whiteSpace=wrap;rounded=0;" vertex="1" parent="1">
          <mxGeometry x="260" y="180" width="60" height="30" as="geometry" />
        </mxCell>
        <mxCell id="jqRJFGE4x9Wc-5zwD3Hr-24" value="Yes Button (User is removed from List)" style="text;html=1;align=center;verticalAlign=middle;whiteSpace=wrap;rounded=0;" vertex="1" parent="1">
          <mxGeometry x="180" y="120" width="80" height="60" as="geometry" />
        </mxCell>
        <mxCell id="jqRJFGE4x9Wc-5zwD3Hr-26" value="" style="curved=1;endArrow=classic;html=1;rounded=0;exitX=0.5;exitY=1;exitDx=0;exitDy=0;fillColor=#FF66B3;strokeColor=light-dark(#FF66B3,#FFFFFF);entryX=0.317;entryY=0.925;entryDx=0;entryDy=0;entryPerimeter=0;" edge="1" parent="1" source="jqRJFGE4x9Wc-5zwD3Hr-17" target="jqRJFGE4x9Wc-5zwD3Hr-1">
          <mxGeometry width="50" height="50" relative="1" as="geometry">
            <mxPoint x="400" y="400" as="sourcePoint" />
            <mxPoint x="387" y="215" as="targetPoint" />
            <Array as="points">
              <mxPoint x="280" y="660" />
              <mxPoint x="290" y="380" />
              <mxPoint x="360" y="280" />
            </Array>
          </mxGeometry>
        </mxCell>
        <mxCell id="jqRJFGE4x9Wc-5zwD3Hr-28" value="Yes Button (User is removed from List)" style="text;html=1;align=center;verticalAlign=middle;whiteSpace=wrap;rounded=0;" vertex="1" parent="1">
          <mxGeometry x="210" y="410" width="80" height="60" as="geometry" />
        </mxCell>
        <mxCell id="jqRJFGE4x9Wc-5zwD3Hr-29" value="" style="endArrow=classic;html=1;rounded=0;exitX=0.5;exitY=1;exitDx=0;exitDy=0;entryX=0.5;entryY=0;entryDx=0;entryDy=0;fillColor=#FFB366;strokeColor=light-dark(#FFB366,#FFFFFF);" edge="1" parent="1" source="jqRJFGE4x9Wc-5zwD3Hr-14" target="jqRJFGE4x9Wc-5zwD3Hr-17">
          <mxGeometry width="50" height="50" relative="1" as="geometry">
            <mxPoint x="400" y="390" as="sourcePoint" />
            <mxPoint x="450" y="340" as="targetPoint" />
          </mxGeometry>
        </mxCell>
        <mxCell id="jqRJFGE4x9Wc-5zwD3Hr-30" value="Delete User Button" style="text;html=1;align=center;verticalAlign=middle;whiteSpace=wrap;rounded=0;" vertex="1" parent="1">
          <mxGeometry x="350" y="470" width="60" height="30" as="geometry" />
        </mxCell>
        <mxCell id="jqRJFGE4x9Wc-5zwD3Hr-31" value="" style="curved=1;endArrow=classic;html=1;rounded=0;exitX=1;exitY=0.5;exitDx=0;exitDy=0;entryX=1;entryY=1;entryDx=0;entryDy=0;strokeColor=light-dark(#66B2FF,#FFFFFF);" edge="1" parent="1" source="jqRJFGE4x9Wc-5zwD3Hr-17" target="jqRJFGE4x9Wc-5zwD3Hr-14">
          <mxGeometry width="50" height="50" relative="1" as="geometry">
            <mxPoint x="400" y="420" as="sourcePoint" />
            <mxPoint x="450" y="370" as="targetPoint" />
            <Array as="points">
              <mxPoint x="520" y="500" />
            </Array>
          </mxGeometry>
        </mxCell>
        <mxCell id="jqRJFGE4x9Wc-5zwD3Hr-32" value="Cancel Button" style="text;html=1;align=center;verticalAlign=middle;whiteSpace=wrap;rounded=0;" vertex="1" parent="1">
          <mxGeometry x="490" y="490" width="60" height="30" as="geometry" />
        </mxCell>
        <mxCell id="jqRJFGE4x9Wc-5zwD3Hr-33" value="" style="curved=1;endArrow=classic;html=1;rounded=0;exitX=0.983;exitY=0.638;exitDx=0;exitDy=0;exitPerimeter=0;entryX=1;entryY=0;entryDx=0;entryDy=0;strokeColor=light-dark(#66B2FF,#FFFFFF);" edge="1" parent="1" source="jqRJFGE4x9Wc-5zwD3Hr-14" target="jqRJFGE4x9Wc-5zwD3Hr-14">
          <mxGeometry width="50" height="50" relative="1" as="geometry">
            <mxPoint x="400" y="420" as="sourcePoint" />
            <mxPoint x="450" y="370" as="targetPoint" />
            <Array as="points">
              <mxPoint x="500" y="420" />
              <mxPoint x="500" y="380" />
            </Array>
          </mxGeometry>
        </mxCell>
        <mxCell id="jqRJFGE4x9Wc-5zwD3Hr-34" value="Edit User Settings" style="text;html=1;align=center;verticalAlign=middle;whiteSpace=wrap;rounded=0;" vertex="1" parent="1">
          <mxGeometry x="500" y="390" width="60" height="30" as="geometry" />
        </mxCell>
        <mxCell id="jqRJFGE4x9Wc-5zwD3Hr-35" value="" style="endArrow=classic;html=1;rounded=0;exitX=0;exitY=0;exitDx=0;exitDy=0;entryX=0.433;entryY=0.988;entryDx=0;entryDy=0;entryPerimeter=0;strokeColor=light-dark(#FF66B3,#FFFFFF);" edge="1" parent="1" source="jqRJFGE4x9Wc-5zwD3Hr-14" target="jqRJFGE4x9Wc-5zwD3Hr-1">
          <mxGeometry width="50" height="50" relative="1" as="geometry">
            <mxPoint x="400" y="420" as="sourcePoint" />
            <mxPoint x="450" y="370" as="targetPoint" />
          </mxGeometry>
        </mxCell>
        <mxCell id="jqRJFGE4x9Wc-5zwD3Hr-36" value="Back Button" style="text;html=1;align=center;verticalAlign=middle;whiteSpace=wrap;rounded=0;" vertex="1" parent="1">
          <mxGeometry x="320" y="340" width="60" height="30" as="geometry" />
        </mxCell>
        <mxCell id="jqRJFGE4x9Wc-5zwD3Hr-38" value="" style="endArrow=classic;html=1;rounded=0;exitX=0.575;exitY=1;exitDx=0;exitDy=0;exitPerimeter=0;entryX=0.5;entryY=0;entryDx=0;entryDy=0;strokeColor=light-dark(#66B2FF,#FFFFFF);" edge="1" parent="1" source="jqRJFGE4x9Wc-5zwD3Hr-1" target="jqRJFGE4x9Wc-5zwD3Hr-14">
          <mxGeometry width="50" height="50" relative="1" as="geometry">
            <mxPoint x="400" y="420" as="sourcePoint" />
            <mxPoint x="450" y="370" as="targetPoint" />
          </mxGeometry>
        </mxCell>
        <mxCell id="jqRJFGE4x9Wc-5zwD3Hr-39" value="Settings Cog Button" style="text;html=1;align=center;verticalAlign=middle;whiteSpace=wrap;rounded=0;" vertex="1" parent="1">
          <mxGeometry x="410" y="270" width="60" height="30" as="geometry" />
        </mxCell>
        <mxCell id="jqRJFGE4x9Wc-5zwD3Hr-41" value="" style="curved=1;endArrow=classic;html=1;rounded=0;exitX=0.767;exitY=0.913;exitDx=0;exitDy=0;exitPerimeter=0;strokeColor=light-dark(#66B2FF,#FFFFFF);" edge="1" parent="1" source="jqRJFGE4x9Wc-5zwD3Hr-1" target="jqRJFGE4x9Wc-5zwD3Hr-14">
          <mxGeometry width="50" height="50" relative="1" as="geometry">
            <mxPoint x="400" y="290" as="sourcePoint" />
            <mxPoint x="450" y="370" as="targetPoint" />
            <Array as="points">
              <mxPoint x="480" y="250" />
              <mxPoint x="470" y="340" />
            </Array>
          </mxGeometry>
        </mxCell>
        <mxCell id="jqRJFGE4x9Wc-5zwD3Hr-42" value="User ID Button" style="text;html=1;align=center;verticalAlign=middle;whiteSpace=wrap;rounded=0;" vertex="1" parent="1">
          <mxGeometry x="460" y="320" width="60" height="30" as="geometry" />
        </mxCell>
        <mxCell id="jqRJFGE4x9Wc-5zwD3Hr-43" value="Create User Button" style="text;html=1;align=center;verticalAlign=middle;whiteSpace=wrap;rounded=0;" vertex="1" parent="1">
          <mxGeometry x="490" y="210" width="60" height="30" as="geometry" />
        </mxCell>
        <mxCell id="jqRJFGE4x9Wc-5zwD3Hr-45" value="" style="curved=1;endArrow=classic;html=1;rounded=0;entryX=0.967;entryY=0.313;entryDx=0;entryDy=0;entryPerimeter=0;exitX=1;exitY=1;exitDx=0;exitDy=0;strokeColor=light-dark(#FF66B3,#FFFFFF);" edge="1" parent="1" source="jqRJFGE4x9Wc-5zwD3Hr-16" target="jqRJFGE4x9Wc-5zwD3Hr-1">
          <mxGeometry width="50" height="50" relative="1" as="geometry">
            <mxPoint x="630" y="330" as="sourcePoint" />
            <mxPoint x="450" y="370" as="targetPoint" />
            <Array as="points">
              <mxPoint x="600" y="165" />
              <mxPoint x="570" y="150" />
              <mxPoint x="530" y="150" />
            </Array>
          </mxGeometry>
        </mxCell>
        <mxCell id="jqRJFGE4x9Wc-5zwD3Hr-46" value="Back Button" style="text;html=1;align=center;verticalAlign=middle;whiteSpace=wrap;rounded=0;" vertex="1" parent="1">
          <mxGeometry x="530" y="150" width="60" height="30" as="geometry" />
        </mxCell>
        <mxCell id="jqRJFGE4x9Wc-5zwD3Hr-48" value="" style="curved=1;endArrow=classic;html=1;rounded=0;entryX=1;entryY=0;entryDx=0;entryDy=0;exitX=0.717;exitY=0.938;exitDx=0;exitDy=0;exitPerimeter=0;strokeColor=light-dark(#FF66B3,#FFFFFF);" edge="1" parent="1" source="jqRJFGE4x9Wc-5zwD3Hr-16" target="jqRJFGE4x9Wc-5zwD3Hr-1">
          <mxGeometry width="50" height="50" relative="1" as="geometry">
            <mxPoint x="648" y="222" as="sourcePoint" />
            <mxPoint x="476" y="175" as="targetPoint" />
            <Array as="points">
              <mxPoint x="640" y="160" />
              <mxPoint x="590" y="100" />
            </Array>
          </mxGeometry>
        </mxCell>
        <mxCell id="jqRJFGE4x9Wc-5zwD3Hr-49" value="Successful Addition (User is added to list)" style="text;html=1;align=center;verticalAlign=middle;whiteSpace=wrap;rounded=0;" vertex="1" parent="1">
          <mxGeometry x="530" y="50" width="90" height="80" as="geometry" />
        </mxCell>
        <mxCell id="jqRJFGE4x9Wc-5zwD3Hr-50" value="" style="curved=1;endArrow=classic;html=1;rounded=0;exitX=1;exitY=0.363;exitDx=0;exitDy=0;exitPerimeter=0;entryX=1;entryY=0;entryDx=0;entryDy=0;strokeColor=light-dark(#67AB9F,#FFFFFF);" edge="1" parent="1" source="jqRJFGE4x9Wc-5zwD3Hr-16" target="jqRJFGE4x9Wc-5zwD3Hr-16">
          <mxGeometry width="50" height="50" relative="1" as="geometry">
            <mxPoint x="400" y="420" as="sourcePoint" />
            <mxPoint x="450" y="370" as="targetPoint" />
            <Array as="points">
              <mxPoint x="580" y="260" />
              <mxPoint x="590" y="300" />
              <mxPoint x="630" y="300" />
            </Array>
          </mxGeometry>
        </mxCell>
        <mxCell id="jqRJFGE4x9Wc-5zwD3Hr-51" value="" style="curved=1;endArrow=classic;html=1;rounded=0;exitX=0.708;exitY=0.075;exitDx=0;exitDy=0;exitPerimeter=0;strokeColor=light-dark(#67AB9F,#FFFFFF);" edge="1" parent="1" source="jqRJFGE4x9Wc-5zwD3Hr-16" target="jqRJFGE4x9Wc-5zwD3Hr-16">
          <mxGeometry width="50" height="50" relative="1" as="geometry">
            <mxPoint x="660" y="279" as="sourcePoint" />
            <mxPoint x="688" y="297" as="targetPoint" />
            <Array as="points">
              <mxPoint x="640" y="300" />
              <mxPoint x="660" y="320" />
              <mxPoint x="690" y="310" />
            </Array>
          </mxGeometry>
        </mxCell>
        <mxCell id="jqRJFGE4x9Wc-5zwD3Hr-52" value="" style="curved=1;endArrow=classic;html=1;rounded=0;exitX=0.308;exitY=0.038;exitDx=0;exitDy=0;exitPerimeter=0;strokeColor=light-dark(#67AB9F,#FFFFFF);" edge="1" parent="1" source="jqRJFGE4x9Wc-5zwD3Hr-16" target="jqRJFGE4x9Wc-5zwD3Hr-16">
          <mxGeometry width="50" height="50" relative="1" as="geometry">
            <mxPoint x="665" y="284" as="sourcePoint" />
            <mxPoint x="696" y="290" as="targetPoint" />
            <Array as="points">
              <mxPoint x="720" y="320" />
              <mxPoint x="750" y="300" />
              <mxPoint x="740" y="277" />
            </Array>
          </mxGeometry>
        </mxCell>
        <mxCell id="jqRJFGE4x9Wc-5zwD3Hr-53" value="" style="curved=1;endArrow=classic;html=1;rounded=0;exitX=0.033;exitY=0.25;exitDx=0;exitDy=0;exitPerimeter=0;entryX=0.042;entryY=0.688;entryDx=0;entryDy=0;entryPerimeter=0;strokeColor=light-dark(#67AB9F,#FFFFFF);" edge="1" parent="1" source="jqRJFGE4x9Wc-5zwD3Hr-16" target="jqRJFGE4x9Wc-5zwD3Hr-16">
          <mxGeometry width="50" height="50" relative="1" as="geometry">
            <mxPoint x="713" y="287" as="sourcePoint" />
            <mxPoint x="729" y="223" as="targetPoint" />
            <Array as="points">
              <mxPoint x="790" y="270" />
              <mxPoint x="780" y="220" />
            </Array>
          </mxGeometry>
        </mxCell>
        <mxCell id="jqRJFGE4x9Wc-5zwD3Hr-54" value="" style="curved=1;endArrow=classic;html=1;rounded=0;exitX=0.083;exitY=0.8;exitDx=0;exitDy=0;exitPerimeter=0;entryX=0.392;entryY=0.988;entryDx=0;entryDy=0;entryPerimeter=0;strokeColor=light-dark(#67AB9F,#FFFFFF);" edge="1" parent="1" source="jqRJFGE4x9Wc-5zwD3Hr-16" target="jqRJFGE4x9Wc-5zwD3Hr-16">
          <mxGeometry width="50" height="50" relative="1" as="geometry">
            <mxPoint x="746" y="270" as="sourcePoint" />
            <mxPoint x="745" y="235" as="targetPoint" />
            <Array as="points">
              <mxPoint x="740" y="190" />
              <mxPoint x="730" y="160" />
              <mxPoint x="690" y="170" />
            </Array>
          </mxGeometry>
        </mxCell>
        <mxCell id="jqRJFGE4x9Wc-5zwD3Hr-55" value="Invalid Username" style="text;html=1;align=center;verticalAlign=middle;whiteSpace=wrap;rounded=0;" vertex="1" parent="1">
          <mxGeometry x="550" y="300" width="60" height="30" as="geometry" />
        </mxCell>
        <mxCell id="jqRJFGE4x9Wc-5zwD3Hr-56" value="Invalid Password" style="text;html=1;align=center;verticalAlign=middle;whiteSpace=wrap;rounded=0;" vertex="1" parent="1">
          <mxGeometry x="640" y="320" width="60" height="30" as="geometry" />
        </mxCell>
        <mxCell id="jqRJFGE4x9Wc-5zwD3Hr-59" value="Invalid Password Combination" style="text;html=1;align=center;verticalAlign=middle;whiteSpace=wrap;rounded=0;" vertex="1" parent="1">
          <mxGeometry x="740" y="300" width="60" height="30" as="geometry" />
        </mxCell>
        <mxCell id="jqRJFGE4x9Wc-5zwD3Hr-60" value="Invalid Full name" style="text;html=1;align=center;verticalAlign=middle;whiteSpace=wrap;rounded=0;" vertex="1" parent="1">
          <mxGeometry x="780" y="210" width="60" height="30" as="geometry" />
        </mxCell>
        <mxCell id="jqRJFGE4x9Wc-5zwD3Hr-61" value="Invalid Email Address" style="text;html=1;align=center;verticalAlign=middle;whiteSpace=wrap;rounded=0;" vertex="1" parent="1">
          <mxGeometry x="690" y="130" width="60" height="30" as="geometry" />
        </mxCell>
      </root>
    </mxGraphModel>
  </diagram>
</mxfile>
